<svg xmlns="http://www.w3.org/2000/svg" fill="none" viewBox="0 0 20 20">
  <g clip-path="url(#clip0_150_308)">
    <path d="M19.561 3.705a2.06 2.06 0 0 0-1.579-.745H5.16l-.4-1.49C4.527.604 3.728 0 2.801 0H.653C.295 0 0 .282 0 .625c0 .342.294.624.653.624h2.148a.69.69 0 0 1 .673.503l2.57 9.787c.231.866 1.03 1.47 1.958 1.47h8.4c.927 0 1.749-.604 1.96-1.47l1.579-6.202a1.786 1.786 0 0 0-.38-1.632zm-.904 1.349l-1.58 6.202a.69.69 0 0 1-.673.503H8.002a.69.69 0 0 1-.674-.503L5.496 4.229h12.487c.21 0 .421.1.548.262.126.16.188.361.126.563zM8.444 14.981c-1.2 0-2.19.947-2.19 2.094 0 1.148.99 2.094 2.19 2.094s2.19-.946 2.19-2.093c0-1.148-.99-2.095-2.19-2.095zm0 2.92c-.484 0-.863-.363-.863-.826 0-.463.379-.826.863-.826.485 0 .864.363.864.826 0 .444-.4.826-.864.826zm7.244-2.92c-1.2 0-2.19.947-2.19 2.094 0 1.148.99 2.094 2.19 2.094s2.189-.946 2.189-2.094c-.02-1.147-.99-2.094-2.19-2.094zm0 2.92c-.485 0-.864-.363-.864-.826 0-.463.38-.826.864-.826s.863.363.863.826c0 .444-.4.826-.863.826z"/>
  </g>
  <defs>
    <clipPath id="clip0_150_308">
      <path d="M0 0h20v20H0z"/>
    </clipPath>
  </defs>
</svg>
